<svg width="21" height="21" viewBox="0 0 21 21" fill="none" xmlns="http://www.w3.org/2000/svg">
<path d="M7.875 19.25H13.125C17.5 19.25 19.25 17.5 19.25 13.125V7.875C19.25 3.5 17.5 1.75 13.125 1.75H7.875C3.5 1.75 1.75 3.5 1.75 7.875V13.125C1.75 17.5 3.5 19.25 7.875 19.25Z" stroke="#FFF9F9" stroke-width="1.3125" stroke-linecap="round" stroke-linejoin="round"/>
<path d="M14.2446 11.9087C13.2558 12.8975 11.8383 13.2037 10.5871 12.81L8.32081 15.0675C8.16331 15.2337 7.83956 15.3387 7.60331 15.3037L6.55331 15.1637C6.20331 15.12 5.88831 14.7875 5.83581 14.4462L5.69581 13.3962C5.66081 13.1687 5.77456 12.845 5.93206 12.6787L8.18956 10.4212C7.80456 9.17 8.10206 7.7525 9.09081 6.76375C10.5083 5.34625 12.8183 5.34625 14.2446 6.76375C15.6621 8.1725 15.6621 10.4825 14.2446 11.9087Z" stroke="#FFF9F9" stroke-width="1.3125" stroke-miterlimit="10" stroke-linecap="round" stroke-linejoin="round"/>
<path d="M9.14414 14.2451L8.40039 13.4926" stroke="#FFF9F9" stroke-width="1.3125" stroke-miterlimit="10" stroke-linecap="round" stroke-linejoin="round"/>
<path d="M11.7198 9.36246H11.7277" stroke="#FFF9F9" stroke-width="1.75" stroke-linecap="round" stroke-linejoin="round"/>
</svg>
